<svg width="14" height="15" viewBox="0 0 14 15" fill="none" xmlns="http://www.w3.org/2000/svg">
	<path
		d="M1.56562 11.2472L1.1527 10.5122C1.12025 10.4539 1.11091 10.3855 1.12653 10.3206C1.14214 10.2557 1.18161 10.1991 1.23704 10.162C1.65585 9.88096 1.9992 9.5014 2.23703 9.05664C2.47487 8.61188 2.59991 8.11557 2.60108 7.61122C2.60048 7.10676 2.47576 6.61017 2.23788 6.16532C2 5.72047 1.65625 5.34102 1.23704 5.06041C1.18184 5.02255 1.14263 4.96554 1.12706 4.90045C1.11148 4.83535 1.12062 4.76677 1.1527 4.70803L1.56562 3.97307C1.58363 3.94136 1.60789 3.91364 1.63697 3.89164C1.66606 3.86964 1.6993 3.85384 1.73472 3.84514C1.77013 3.83644 1.80694 3.83506 1.84291 3.84108C1.87887 3.8471 1.91327 3.86038 1.94392 3.88013C2.56596 4.28407 3.07733 4.8368 3.43177 5.48832C3.78622 6.13983 3.97257 6.86953 3.97378 7.61122C3.97279 8.35265 3.78657 9.08208 3.43209 9.73328C3.07761 10.3845 2.56607 10.9368 1.94392 11.3401C1.91327 11.3599 1.87887 11.3732 1.84291 11.3792C1.80694 11.3852 1.77013 11.3838 1.73472 11.3751C1.6993 11.3664 1.66606 11.3506 1.63697 11.3286C1.60789 11.3066 1.58363 11.2789 1.56562 11.2472Z"
		fill="#FFFFFE" />
	<path
		d="M12.3388 11.2472C12.3208 11.2789 12.2965 11.3066 12.2675 11.3286C12.2384 11.3506 12.2051 11.3664 12.1697 11.3751C12.1343 11.3838 12.0975 11.3852 12.0615 11.3792C12.0256 11.3732 11.9912 11.3599 11.9605 11.3401C11.3384 10.9368 10.8268 10.3845 10.4724 9.73328C10.1179 9.08208 9.93165 8.35265 9.93066 7.61122C9.93168 6.86949 10.1179 6.13976 10.4724 5.48821C10.8268 4.83666 11.3383 4.28392 11.9605 3.88013C11.9912 3.86038 12.0256 3.8471 12.0615 3.84108C12.0975 3.83506 12.1343 3.83644 12.1697 3.84514C12.2051 3.85384 12.2384 3.86964 12.2675 3.89164C12.2965 3.91364 12.3208 3.94136 12.3388 3.97307L12.7517 4.70803C12.7843 4.76666 12.7937 4.83537 12.7781 4.9006C12.7625 4.96584 12.723 5.02288 12.6674 5.06041C12.2487 5.3414 11.9055 5.72099 11.668 6.1658C11.4306 6.6106 11.3061 7.10699 11.3056 7.61122C11.3063 8.11541 11.4309 8.61171 11.6684 9.05648C11.9058 9.50126 12.2489 9.88085 12.6674 10.162C12.7232 10.1988 12.763 10.2554 12.7787 10.3205C12.7943 10.3855 12.7847 10.454 12.7517 10.5122L12.3388 11.2472Z"
		fill="#FFFFFE" />
	<path
		d="M6.95226 4.63241C6.21082 4.63142 5.48135 4.4452 4.83014 4.09072C4.17894 3.73624 3.62664 3.2247 3.22333 2.60255C3.20327 2.57199 3.18973 2.53762 3.18354 2.50159C3.17735 2.46556 3.17862 2.42864 3.18734 2.39314C3.19606 2.35763 3.21202 2.32435 3.23421 2.29529C3.25639 2.26623 3.28438 2.24203 3.31632 2.22425L4.05128 1.81139C4.10946 1.77842 4.17795 1.76877 4.24296 1.78442C4.30798 1.80007 4.36469 1.83984 4.4015 1.89567C4.68263 2.31421 5.06227 2.65731 5.50705 2.89477C5.95182 3.13223 6.44806 3.25681 6.95226 3.25755C7.45649 3.257 7.95288 3.13251 8.39768 2.89503C8.84248 2.65755 9.22202 2.31435 9.50301 1.89567C9.54055 1.84008 9.59759 1.80061 9.66282 1.785C9.72805 1.76939 9.79682 1.77881 9.85545 1.81139L10.5904 2.22425C10.6221 2.24226 10.6498 2.26658 10.6718 2.29566C10.6938 2.32474 10.7096 2.35799 10.7183 2.3934C10.727 2.42881 10.7285 2.46562 10.7225 2.50159C10.7164 2.53755 10.703 2.5719 10.6833 2.60255C10.2794 3.22459 9.72662 3.73601 9.07511 4.09046C8.42359 4.4449 7.69394 4.6312 6.95226 4.63241Z"
		fill="#FFFFFE" />
	<path
		d="M9.85545 13.1884C9.79707 13.2212 9.72845 13.231 9.66324 13.2158C9.59803 13.2006 9.54087 13.1615 9.50301 13.1063C9.2224 12.6871 8.84295 12.3434 8.3981 12.1055C7.95325 11.8676 7.45672 11.7429 6.95226 11.7423C6.44783 11.7431 5.95134 11.8679 5.50652 12.1057C5.0617 12.3436 4.68225 12.6872 4.4015 13.1063C4.36403 13.1614 4.30718 13.2004 4.24233 13.2156C4.17748 13.2308 4.10933 13.2211 4.05128 13.1884L3.31632 12.7756C3.28438 12.7578 3.25639 12.7336 3.23421 12.7046C3.21202 12.6755 3.19606 12.6422 3.18734 12.6067C3.17862 12.5712 3.17735 12.5343 3.18354 12.4982C3.18973 12.4622 3.20327 12.4278 3.22333 12.3973C3.62675 11.7754 4.17913 11.2642 4.83035 10.9101C5.48158 10.5559 6.21098 10.3702 6.95226 10.3696C7.69385 10.371 8.42339 10.5576 9.07458 10.9125C9.72577 11.2673 10.278 11.7792 10.6812 12.4016C10.7009 12.4323 10.7142 12.4666 10.7202 12.5026C10.7263 12.5385 10.7249 12.5753 10.7162 12.6108C10.7075 12.6462 10.6917 12.6795 10.6697 12.7085C10.6477 12.7376 10.6199 12.7619 10.5882 12.7799L9.85545 13.1884Z"
		fill="#FFFFFE" />
</svg>
