<svg width="155" height="31" viewBox="0 0 155 31" fill="none" xmlns="http://www.w3.org/2000/svg">
	<g clip-path="url(#clip0_859_8909)">
		<path
			d="M44.3121 10.6054C45.6592 10.6054 46.7443 10.9937 47.5865 11.7423H47.6338V6.13324H51.0715V23.7823H47.8744V22.6454H47.8271C47.1288 23.5084 45.7795 24.1556 44.3121 24.1556C41.014 24.1556 38.6055 21.2777 38.6055 17.3859C38.6055 13.494 41.014 10.6054 44.3121 10.6054ZM47.6338 16.4561C47.647 16.1001 47.5869 15.7451 47.4573 15.4135C47.3277 15.0819 47.1313 14.7807 46.8804 14.5288C46.6295 14.2769 46.3295 14.0797 45.9993 13.9495C45.669 13.8193 45.3155 13.759 44.9609 13.7723C43.1067 13.7723 42.0475 15.0797 42.0475 17.3751C42.0475 19.623 43.1325 20.9778 44.9609 20.9778C45.3148 20.9886 45.6672 20.9265 45.9963 20.7955C46.3254 20.6644 46.6244 20.4671 46.8747 20.2157C47.1251 19.9643 47.3216 19.6642 47.4521 19.3337C47.5827 19.0032 47.6445 18.6494 47.6338 18.2941V16.4561Z"
			fill="white" />
		<path
			d="M53.918 6.85815H60.8278C64.4159 6.85815 66.6805 8.96152 66.6805 12.4434C66.6805 15.9254 64.4653 18.005 60.7805 18.005H57.4824V23.7824H53.918V6.85815ZM63.116 12.4197C63.116 10.8966 62.321 10.1222 60.7526 10.1222H57.4781V14.7151H60.7289C62.1792 14.7151 63.116 13.8457 63.116 12.4284V12.4197Z"
			fill="white" />
		<path
			d="M68.1016 10.9678H71.5393V18.6091C71.5393 20.1796 72.2848 20.9822 73.7781 20.9822C75.151 20.9822 76.0169 20.0631 76.0169 18.6091V10.9678H79.4546V23.7824H76.1673V22.6454H76.12C75.4217 23.5407 74.0724 24.1556 72.6995 24.1556C69.8118 24.1556 68.1016 22.3909 68.1016 19.4095V10.9678Z"
			fill="white" />
		<path
			d="M85.0508 22.6454V23.7823H81.873V6.13324H85.3108V11.7423H85.358C86.2003 10.9937 87.2917 10.6054 88.6088 10.6054C91.9069 10.6054 94.3154 13.4833 94.3154 17.3751C94.3154 21.2669 91.9069 24.1448 88.6088 24.1448C87.1392 24.1448 85.8393 23.5148 85.0938 22.6347L85.0508 22.6454ZM87.9642 13.7723C86.4237 13.7723 85.3172 14.8855 85.3172 16.4561V18.2941C85.3172 19.8409 86.4237 20.9778 87.9642 20.9778C89.8185 20.9778 90.8777 19.6726 90.8777 17.3751C90.8777 15.0775 89.8185 13.7723 87.9621 13.7723H87.9642Z"
			fill="white" />
		<path d="M96.2236 23.7823V6.13324H99.6613V23.7823H96.2236Z" fill="white" />
		<path
			d="M102.003 8.86658V5.48175H105.494V8.86658H102.003ZM102.05 23.7823V10.9678H105.488V23.7823H102.05Z"
			fill="white" />
		<path
			d="M110.19 18.8248C110.6 20.5658 111.479 21.3165 113.296 21.3165C114.332 21.3165 115.005 20.9282 115.005 20.2767C115.005 19.5519 114.476 19.2369 111.947 18.4387C109.034 17.4959 107.783 16.3849 107.783 14.4498C107.783 12.2924 109.949 10.6054 112.695 10.6054C113.947 10.5902 115.174 10.9615 116.21 11.669C117.191 12.2943 117.91 13.258 118.232 14.3786L115.174 15.2717C114.764 14.0874 113.849 13.41 112.695 13.41C111.835 13.41 111.225 13.8932 111.225 14.4498C111.225 14.9567 111.466 15.097 113.778 15.852C117.052 16.9889 118.449 18.1237 118.449 20.253C118.449 22.5247 116.21 24.1362 113.292 24.1362C109.854 24.1362 107.682 22.5398 107.128 19.6403L110.19 18.8248Z"
			fill="white" />
		<path
			d="M120.109 6.13324H123.547V12.1047H123.594C124.293 11.162 125.569 10.5946 126.942 10.5946C129.686 10.5946 131.613 12.5362 131.613 15.3407V23.778H128.175V16.1864C128.175 14.6633 127.333 13.7939 125.865 13.7939C124.398 13.7939 123.554 14.7108 123.554 16.1864V23.778H120.116L120.109 6.13324Z"
			fill="white" />
		<path
			d="M139.42 10.6054C142.959 10.6054 145.415 13.3387 145.415 17.3751V18.3912H136.868C136.965 20.2033 137.927 21.2432 139.494 21.2432C140.744 21.2432 141.683 20.6629 142.575 19.3339L145.007 21.2432C143.778 23.1848 141.924 24.1448 139.494 24.1448C135.905 24.1448 133.402 21.4115 133.402 17.3751C133.402 13.3862 135.905 10.6054 139.42 10.6054ZM139.444 13.507C138.024 13.507 136.988 14.4735 136.866 15.9491H142.068C141.949 14.4023 141.01 13.507 139.444 13.507Z"
			fill="white" />
		<path
			d="M147.319 10.9678H150.542V12.1047H150.589C151.167 11.2418 152.106 10.7262 153.333 10.7262C153.895 10.7204 154.454 10.793 154.996 10.9419L154.418 14.2297C153.953 14.1098 153.476 14.0454 152.996 14.0377C151.528 14.0377 150.757 15.0279 150.757 16.8897V23.7802H147.319V10.9678Z"
			fill="white" />
		<path
			d="M26.1331 0H6.73147C3.01378 0 0 3.02606 0 6.7589V23.7112C0 27.444 3.01378 30.4701 6.73147 30.4701H26.1331C29.8508 30.4701 32.8645 27.444 32.8645 23.7112V6.7589C32.8645 3.02606 29.8508 0 26.1331 0Z"
			fill="#1CD681" />
		<path
			d="M28.4946 15.2329C24.2233 13.2158 23.424 11.2828 25.0247 6.81929C20.5836 8.4265 18.6563 7.62397 16.6453 3.33521C14.6364 7.62397 12.7112 8.4265 8.26584 6.81929C9.86653 11.2785 9.0694 13.2115 4.7959 15.2329C9.0694 17.25 9.86653 19.1851 8.26584 23.6464C12.7091 22.0392 14.6342 22.8418 16.6453 27.1305C18.6542 22.8418 20.5814 22.0392 25.0247 23.6464C23.424 19.1872 24.2233 17.2521 28.4946 15.2329ZM14.8534 16.5273C14.8534 16.8662 14.7194 17.1912 14.4809 17.4311C14.2425 17.6709 13.9189 17.806 13.5814 17.8066C13.2439 17.806 12.9203 17.6709 12.6819 17.4311C12.4434 17.1912 12.3095 16.8662 12.3095 16.5273V12.2385C12.3095 11.8996 12.4434 11.5745 12.6819 11.3347C12.9203 11.0948 13.2439 10.9598 13.5814 10.9592C13.9189 10.9598 14.2425 11.0948 14.4809 11.3347C14.7194 11.5745 14.8534 11.8996 14.8534 12.2385V16.5273ZM20.9875 16.5273C20.9875 16.8662 20.8536 17.1912 20.6151 17.4311C20.3766 17.6709 20.0531 17.806 19.7156 17.8066C19.378 17.806 19.0545 17.6709 18.816 17.4311C18.5776 17.1912 18.4436 16.8662 18.4436 16.5273V12.2385C18.4436 11.8996 18.5776 11.5745 18.816 11.3347C19.0545 11.0948 19.378 10.9598 19.7156 10.9592C20.0531 10.9598 20.3766 11.0948 20.6151 11.3347C20.8536 11.5745 20.9875 11.8996 20.9875 12.2385V16.5273Z"
			fill="black" />
	</g>
	<defs>
		<clipPath id="clip0_859_8909">
			<rect width="155" height="30.4701" fill="white" />
		</clipPath>
	</defs>
</svg>
